Coordinates
version=1
nRows=9
nColumns=24
inDegrees=yes

Units are S.I. units (second, meters, Newtons, ...)
Angles are in degrees.

endheader
time	pelvis_tilt	pelvis_list	pelvis_rotation	pelvis_tx	pelvis_ty	pelvis_tz	hip_flexion_r	hip_adduction_r	hip_rotation_r	knee_angle_r	ankle_angle_r	subtalar_angle_r	mtp_angle_r	hip_flexion_l	hip_adduction_l	hip_rotation_l	knee_angle_l	ankle_angle_l	subtalar_angle_l	mtp_angle_l	lumbar_extension	lumbar_bending	lumbar_rotation
      4.19000000	     14.50338032	      2.39511206	     11.15796404	     -0.43733176	      0.92832859	     -0.27725305	      3.10448004	     -2.68770625	     -5.06025966	     -2.89662861	     12.38657362	     -2.13053748	      0.00000000	    -29.72669687	     -0.95208113	     14.05082798	    -11.24996751	     21.74755344	      4.27859377	      0.00000000	    -30.41040938	      2.25881276	    -16.42475173
      4.19500000	     14.54956746	      2.01720160	     11.25043293	     -0.43031512	      0.92781213	     -0.27684412	      3.05857580	     -2.23199166	     -5.11945927	     -3.08878458	     12.23327601	     -2.35912146	      0.00000000	    -29.83447814	     -1.45350160	     13.74481633	    -11.95020421	     21.77094423	      4.82091827	      0.00000000	    -30.30174251	      2.69849864	    -16.29368692
      4.20000000	     14.76994730	      1.61755328	     11.25862355	     -0.42333563	      0.92747116	     -0.27629553	      2.85134882	     -1.70461741	     -5.11703024	     -3.36852603	     12.10906788	     -2.60548853	      0.00000000	    -30.11537922	     -1.97427369	     13.26806380	    -12.67168628	     21.75405480	      5.42801373	      0.00000000	    -30.39667518	      3.15832247	    -16.09990687
      4.20500000	     14.87523213	      1.16146271	     11.32543833	     -0.41621607	      0.92708624	     -0.27585516	      2.76878355	     -1.14537588	     -5.21873274	     -3.73856491	     12.03409557	     -2.76087121	      0.00000000	    -30.24415120	     -2.54082795	     12.92819704	    -13.44513457	     21.66132496	      5.92545892	      0.00000000	    -30.32781423	      3.67854864	    -15.86891781
      4.21000000	     15.03047784	      0.68207728	     11.37362781	     -0.40909271	      0.92677226	     -0.27533173	      2.64428847	     -0.54110158	     -5.31884104	     -4.18066718	     11.98357436	     -2.93181969	      0.00000000	    -30.39354963	     -3.13624569	     12.47495880	    -14.27697818	     21.56375823	      6.53763210	      0.00000000	    -30.31364171	      4.21785203	    -15.63886072
      4.21500000	     15.20321235	      0.17114212	     11.41045897	     -0.40191677	      0.92650841	     -0.27478795	      2.50748007	      0.10505786	     -5.43255443	     -4.68668356	     11.95732527	     -3.09463135	      0.00000000	    -30.53787214	     -3.75711055	     11.98199878	    -15.15289940	     21.41227459	      7.15854843	      0.00000000	    -30.30983599	      4.78632563	    -15.39197909
      4.22000000	     15.37726841	     -0.36086613	     11.44582773	     -0.39470610	      0.92628030	     -0.27422232	      2.36975272	      0.77818680	     -5.56193831	     -5.24177789	     11.95804422	     -3.24159630	      0.00000000	    -30.65126213	     -4.39622899	     11.46297792	    -16.09047586	     21.21457677	      7.79707077	      0.00000000	    -30.30038612	      5.37928224	    -15.13693554
      4.22500000	     15.57862288	     -0.90276063	     11.47890355	     -0.38747352	      0.92610908	     -0.27357733	      2.20332304	      1.47665757	     -5.69522284	     -5.84285578	     11.97860704	     -3.39752899	      0.00000000	    -30.76625121	     -5.05622700	     10.87439101	    -17.07390258	     20.96793639	      8.45975275	      0.00000000	    -30.32026856	      5.96155553	    -14.88680559
      4.23000000	     15.79282333	     -1.46366007	     11.49951798	     -0.38025915	      0.92597813	     -0.27294660	      2.02378366	      2.19781161	     -5.79989716	     -6.47652308	     12.00719696	     -3.54128364	      0.00000000	    -30.85936724	     -5.72323396	     10.30048165	    -18.12403791	     20.67801971	      9.15716918	      0.00000000	    -30.36177713	      6.58056067	    -14.62178985
